<svg width="28" height="28" viewBox="0 0 28 28" fill="none" xmlns="http://www.w3.org/2000/svg">
<rect width="28" height="28" rx="4" fill="black"/>
<path d="M20.2909 11.7302L20.2638 11.6935L20.2584 11.6827L17.7936 8.02372L15.3287 11.6828L15.3236 11.693L15.2962 11.7302C14.9007 12.2659 14.6917 12.9023 14.6917 13.5706C14.6917 15.281 16.0832 16.6725 17.7936 16.6725C19.5039 16.6725 20.8954 15.281 20.8954 13.5706C20.8955 12.9022 20.6864 12.2658 20.2909 11.7302Z" fill="#FFEBB9"/>
<path d="M17.7936 17.7293C15.5004 17.7293 13.6349 15.8637 13.6349 13.5705C13.6349 12.6791 13.9126 11.8297 14.4381 11.1133L16.0584 8.70794L13.5605 5L8.35612 12.7257C7.53786 13.8392 7.10547 15.1595 7.10547 16.5449C7.10547 20.1043 10.0012 23 13.5605 23C16.933 23 19.7093 20.4002 19.9915 17.0994C19.3534 17.4984 18.6 17.7293 17.7936 17.7293Z" fill="#FFEBB9"/>
</svg>
