<svg width="138" height="31" viewBox="0 0 138 31" fill="none" xmlns="http://www.w3.org/2000/svg">
<g id="Logo" opacity="0.6">
<path d="M33.3518 7.2937H36.5171V22.6107H33.3518V7.2937Z" fill="#374151"/>
<path d="M38.2897 17.3637C38.2898 16.2617 38.6154 15.1845 39.2255 14.2687C39.8356 13.3528 40.7026 12.6396 41.7166 12.2193C42.7307 11.7991 43.8461 11.6907 44.9215 11.9081C45.9968 12.1254 46.9838 12.6586 47.7572 13.44C48.5306 14.2215 49.0557 15.216 49.2658 16.2976C49.476 17.3792 49.3618 18.4991 48.9376 19.5154C48.5135 20.5317 47.7986 21.3987 46.8835 22.0063C45.9684 22.614 44.8943 22.935 43.7974 22.9287C43.0699 22.9344 42.3485 22.7941 41.6757 22.5161C41.0028 22.238 40.392 21.8278 39.879 21.3095C39.366 20.7912 38.9612 20.1752 38.6883 19.4976C38.4154 18.82 38.2799 18.0946 38.2897 17.3637ZM46.2242 17.3637C46.2117 16.8886 46.0601 16.4277 45.7884 16.0388C45.5166 15.6498 45.1367 15.3499 44.6961 15.1767C44.2556 15.0035 43.774 14.9646 43.3116 15.0649C42.8492 15.1652 42.4265 15.4003 42.0964 15.7407C41.7662 16.0811 41.5433 16.5117 41.4555 16.9787C41.3677 17.4457 41.4189 17.9283 41.6027 18.3662C41.7865 18.8042 42.0947 19.1779 42.4888 19.4408C42.883 19.7036 43.3455 19.8439 43.8185 19.8441C44.1406 19.8504 44.4605 19.7899 44.7583 19.6664C45.056 19.5428 45.3252 19.3589 45.549 19.1261C45.7728 18.8933 45.9464 18.6167 46.059 18.3134C46.1715 18.0102 46.2206 17.6868 46.2031 17.3637H46.2242Z" fill="#374151"/>
<path d="M61.8294 12.1167V22.0913C61.8294 25.6105 59.0861 27.1051 56.3111 27.1051C55.3323 27.1858 54.3505 26.9904 53.4763 26.541C52.602 26.0915 51.87 25.4058 51.3626 24.5611L54.0321 23.0135C54.2484 23.4516 54.5925 23.8132 55.0185 24.0499C55.4445 24.2866 55.9322 24.3873 56.4166 24.3385C56.7252 24.3767 57.0384 24.3459 57.3338 24.2483C57.6291 24.1508 57.8994 23.9889 58.1252 23.7741C58.351 23.5594 58.5268 23.2972 58.64 23.0063C58.7532 22.7154 58.8011 22.4029 58.7801 22.0913V21.1267C58.4117 21.5754 57.9444 21.9316 57.415 22.1671C56.8857 22.4026 56.3091 22.511 55.7308 22.4835C54.3316 22.4835 52.9898 21.9251 52.0004 20.9312C51.0111 19.9372 50.4552 18.5891 50.4552 17.1835C50.4552 15.7778 51.0111 14.4298 52.0004 13.4358C52.9898 12.4419 54.3316 11.8835 55.7308 11.8835C56.3091 11.856 56.8857 11.9643 57.415 12.1999C57.9444 12.4354 58.4117 12.7916 58.7801 13.2403V12.1803L61.8294 12.1167ZM58.7801 17.1517C58.8011 16.6446 58.6707 16.1427 58.4055 15.7106C58.1404 15.2786 57.7527 14.936 57.2922 14.7271C56.8317 14.5182 56.3196 14.4525 55.8217 14.5384C55.3237 14.6242 54.8627 14.8578 54.4979 15.209C54.1331 15.5601 53.8813 16.0129 53.7747 16.5091C53.6681 17.0053 53.7117 17.5221 53.8999 17.9932C54.0881 18.4642 54.4122 18.868 54.8306 19.1525C55.249 19.437 55.7426 19.5893 56.2478 19.5897C56.5775 19.6136 56.9085 19.5677 57.2194 19.455C57.5303 19.3424 57.8143 19.1655 58.0529 18.9357C58.2916 18.706 58.4796 18.4285 58.6048 18.1212C58.7301 17.8139 58.7898 17.4836 58.7801 17.1517Z" fill="#374151"/>
<path d="M63.6125 17.3637C63.6125 16.2626 63.9376 15.1862 64.5467 14.2708C65.1559 13.3555 66.0216 12.6422 67.0344 12.2213C68.0472 11.8004 69.1616 11.6908 70.2364 11.9064C71.3112 12.122 72.2982 12.6531 73.0724 13.4324C73.8467 14.2117 74.3735 15.2043 74.586 16.2845C74.7985 17.3647 74.6873 18.484 74.2665 19.5007C73.8456 20.5174 73.1339 21.3858 72.2216 21.996C71.3093 22.6062 70.2373 22.9308 69.1413 22.9287C68.4123 22.9358 67.6894 22.7966 67.0147 22.5193C66.34 22.2421 65.7272 21.8322 65.2123 21.3139C64.6973 20.7956 64.2906 20.1792 64.0159 19.5009C63.7412 18.8226 63.604 18.096 63.6125 17.3637ZM71.5469 17.3637C71.5344 16.8881 71.3826 16.4269 71.1103 16.0377C70.8381 15.6485 70.4575 15.3486 70.0164 15.1758C69.5752 15.0029 69.0931 14.9646 68.6304 15.0658C68.1678 15.167 67.7451 15.4031 67.4154 15.7445C67.0857 16.086 66.8636 16.5176 66.777 16.9852C66.6904 17.4529 66.7431 17.9359 66.9285 18.3736C67.1139 18.8113 67.4238 19.1843 67.8193 19.4459C68.2148 19.7075 68.6783 19.846 69.1518 19.8441C69.4739 19.8504 69.7938 19.7899 70.0916 19.6664C70.3893 19.5428 70.6585 19.3589 70.8823 19.1261C71.1061 18.8933 71.2797 18.6167 71.3922 18.3134C71.5048 18.0102 71.5538 17.6869 71.5364 17.3637H71.5469Z" fill="#374151"/>
<path d="M76.1367 9.30765C76.1367 8.93447 76.2469 8.56968 76.4532 8.2594C76.6596 7.94911 76.9529 7.70728 77.2961 7.56447C77.6393 7.42166 78.0169 7.3843 78.3812 7.4571C78.7455 7.5299 79.0802 7.7096 79.3428 7.97348C79.6055 8.23735 79.7844 8.57355 79.8568 8.93955C79.9293 9.30555 79.8921 9.68493 79.75 10.0297C79.6078 10.3745 79.3671 10.6691 79.0582 10.8765C78.7494 11.0838 78.3863 11.1944 78.0148 11.1944C77.5184 11.1889 77.0439 10.9884 76.6929 10.6357C76.3418 10.2831 76.1422 9.80635 76.1367 9.30765ZM76.4427 12.1166H79.608V22.6107H76.4427V12.1166Z" fill="#374151"/>
<path d="M93.1557 17.3637C93.1911 18.0616 93.0889 18.7597 92.8548 19.4178C92.6207 20.0758 92.2593 20.6809 91.7916 21.1981C91.3238 21.7153 90.7588 22.1345 90.1292 22.4315C89.4996 22.7285 88.8177 22.8975 88.1228 22.9287C87.5331 22.9681 86.9421 22.8733 86.3941 22.6512C85.846 22.4291 85.3549 22.0855 84.9574 21.6461V26.8295H81.7921V12.1167H84.9574V13.1025C85.3554 12.6644 85.8468 12.3224 86.395 12.1022C86.9432 11.8819 87.5338 11.789 88.1228 11.8305C88.8149 11.8618 89.4941 12.0298 90.1216 12.3248C90.7491 12.6198 91.3126 13.0361 91.7799 13.5499C92.2473 14.0637 92.6093 14.665 92.8453 15.3194C93.0814 15.9737 93.1868 16.6684 93.1557 17.3637ZM89.9903 17.3637C89.9778 16.8714 89.821 16.3937 89.5395 15.9906C89.2579 15.5874 88.8642 15.2767 88.4076 15.0974C87.9511 14.9181 87.452 14.8782 86.9729 14.9827C86.4939 15.0871 86.0562 15.3313 85.7147 15.6846C85.3732 16.0379 85.143 16.4846 85.0532 16.9687C84.9633 17.4529 85.0177 17.9529 85.2095 18.4061C85.4013 18.8593 85.722 19.2456 86.1313 19.5165C86.5407 19.7874 87.0206 19.9309 87.5108 19.9289C87.8466 19.9432 88.1815 19.8861 88.4938 19.7612C88.806 19.6364 89.0885 19.4466 89.3226 19.2044C89.5567 18.9622 89.7372 18.673 89.8523 18.3558C89.9674 18.0385 90.0144 17.7005 89.9903 17.3637Z" fill="#374151"/>
<path d="M102.789 19.4625C102.789 21.8793 100.679 22.9075 98.4418 22.9075C97.5294 22.99 96.6135 22.7957 95.8122 22.3497C95.0109 21.9038 94.3612 21.2267 93.947 20.4059L96.6692 18.8583C96.777 19.2365 97.0109 19.5661 97.3316 19.7918C97.6524 20.0176 98.0405 20.1258 98.4312 20.0985C99.1803 20.0985 99.5602 19.8653 99.5602 19.4413C99.5602 18.2859 94.4218 18.9007 94.4218 15.2649C94.4218 12.9753 96.3421 11.8305 98.5156 11.8305C99.3418 11.7933 100.163 11.9816 100.891 12.3754C101.619 12.7692 102.228 13.3538 102.652 14.0671L99.9295 15.5087C99.8092 15.2352 99.6127 15.0026 99.3637 14.8389C99.1146 14.6753 98.8238 14.5876 98.5262 14.5865C97.9775 14.5865 97.6504 14.7985 97.6504 15.1695C97.6504 16.3779 102.789 15.5829 102.789 19.4625Z" fill="#374151"/>
<path d="M114.258 12.1167V22.6107H111.093V21.6249C110.733 22.0613 110.276 22.4066 109.759 22.6331C109.243 22.8596 108.68 22.9608 108.117 22.9287C106.007 22.9287 104.203 21.4129 104.203 18.5827V12.1167H107.368V18.1057C107.343 18.3561 107.373 18.6089 107.454 18.8467C107.536 19.0845 107.669 19.3017 107.842 19.4831C108.016 19.6645 108.226 19.8059 108.46 19.8975C108.693 19.9891 108.943 20.0288 109.193 20.0137C110.333 20.0137 111.135 19.3353 111.135 17.8937V12.1167H114.258Z" fill="#374151"/>
<path d="M132.195 16.1659V22.6107H129.029V16.4415C129.029 15.3815 128.534 14.7243 127.531 14.7243C126.529 14.7243 125.896 15.4557 125.896 16.6959V22.6107H122.73V16.4415C122.73 15.3815 122.235 14.7243 121.232 14.7243C120.23 14.7243 119.597 15.4557 119.597 16.6959V22.6107H116.431V12.1167H119.597V13.0813C119.924 12.6551 120.353 12.3176 120.843 12.0993C121.333 11.8809 121.869 11.7885 122.403 11.8305C122.939 11.8024 123.472 11.9147 123.951 12.1563C124.43 12.3979 124.839 12.7605 125.136 13.2085C125.484 12.7404 125.944 12.3685 126.473 12.1276C127.003 11.8866 127.585 11.7844 128.164 11.8305C130.633 11.8305 132.195 13.5477 132.195 16.1659Z" fill="#374151"/>
<path d="M14.4969 4.53771V0.0327148H0.358398V30.9847H14.4969V26.4797C11.6006 26.4797 8.82299 25.3238 6.77502 23.2664C4.72704 21.2089 3.5765 18.4184 3.5765 15.5087C3.5765 12.599 4.72704 9.80851 6.77502 7.75104C8.82299 5.69358 11.6006 4.53771 14.4969 4.53771Z" fill="#374151"/>
<path d="M14.4969 4.53771V26.4797C17.3932 26.4797 20.1708 25.3238 22.2188 23.2664C24.2667 21.2089 25.4173 18.4184 25.4173 15.5087C25.4173 12.599 24.2667 9.80851 22.2188 7.75105C20.1708 5.69359 17.3932 4.53771 14.4969 4.53771Z" fill="#374151"/>
<path d="M134.854 12.0531C136.136 12.0531 137.175 11.009 137.175 9.72109C137.175 8.43316 136.136 7.38908 134.854 7.38908C133.572 7.38908 132.533 8.43316 132.533 9.72109C132.533 11.009 133.572 12.0531 134.854 12.0531Z" fill="#374151"/>
</g>
</svg>
