<svg width="138" height="31" viewBox="0 0 138 31" fill="none" xmlns="http://www.w3.org/2000/svg">
<g id="Logo" opacity="0.6">
<path d="M33.6926 7.2937H36.858V22.6107H33.6926V7.2937Z" fill="#374151"/>
<path d="M38.6306 17.3637C38.6306 16.2617 38.9563 15.1845 39.5663 14.2687C40.1764 13.3528 41.0434 12.6396 42.0575 12.2193C43.0715 11.7991 44.1869 11.6907 45.2623 11.9081C46.3377 12.1254 47.3246 12.6586 48.098 13.44C48.8714 14.2215 49.3965 15.216 49.6067 16.2976C49.8168 17.3792 49.7026 18.4991 49.2785 19.5154C48.8543 20.5317 48.1394 21.3987 47.2243 22.0063C46.3092 22.614 45.2352 22.935 44.1383 22.9287C43.4107 22.9344 42.6894 22.7941 42.0165 22.5161C41.3436 22.238 40.7328 21.8278 40.2198 21.3095C39.7068 20.7912 39.302 20.1752 39.0291 19.4976C38.7562 18.82 38.6207 18.0946 38.6306 17.3637ZM46.565 17.3637C46.5526 16.8886 46.401 16.4277 46.1292 16.0388C45.8574 15.6498 45.4775 15.3499 45.0369 15.1767C44.5964 15.0035 44.1148 14.9646 43.6524 15.0649C43.19 15.1652 42.7673 15.4003 42.4372 15.7407C42.107 16.0811 41.8841 16.5117 41.7963 16.9787C41.7085 17.4457 41.7597 17.9283 41.9435 18.3662C42.1273 18.8042 42.4355 19.1779 42.8297 19.4408C43.2238 19.7036 43.6863 19.8439 44.1594 19.8441C44.4814 19.8504 44.8014 19.7899 45.0991 19.6664C45.3969 19.5428 45.6661 19.3589 45.8899 19.1261C46.1137 18.8933 46.2872 18.6167 46.3998 18.3134C46.5123 18.0102 46.5614 17.6868 46.5439 17.3637H46.565Z" fill="#374151"/>
<path d="M62.1702 12.1167V22.0913C62.1702 25.6105 59.4269 27.1051 56.6519 27.1051C55.6732 27.1858 54.6914 26.9904 53.8171 26.541C52.9429 26.0915 52.2108 25.4058 51.7034 24.5611L54.3729 23.0135C54.5892 23.4516 54.9333 23.8132 55.3593 24.0499C55.7853 24.2866 56.273 24.3873 56.7574 24.3385C57.066 24.3767 57.3792 24.3459 57.6746 24.2483C57.9699 24.1508 58.2402 23.9889 58.466 23.7741C58.6918 23.5594 58.8676 23.2972 58.9809 23.0063C59.0941 22.7154 59.1419 22.4029 59.1209 22.0913V21.1267C58.7526 21.5754 58.2852 21.9316 57.7559 22.1671C57.2266 22.4026 56.6499 22.511 56.0716 22.4835C54.6725 22.4835 53.3306 21.9251 52.3412 20.9312C51.3519 19.9372 50.7961 18.5891 50.7961 17.1835C50.7961 15.7778 51.3519 14.4298 52.3412 13.4358C53.3306 12.4419 54.6725 11.8835 56.0716 11.8835C56.6499 11.856 57.2266 11.9643 57.7559 12.1999C58.2852 12.4354 58.7526 12.7916 59.1209 13.2403V12.1803L62.1702 12.1167ZM59.1209 17.1517C59.142 16.6446 59.0115 16.1427 58.7464 15.7106C58.4812 15.2786 58.0935 14.936 57.633 14.7271C57.1726 14.5182 56.6604 14.4525 56.1625 14.5384C55.6645 14.6242 55.2035 14.8578 54.8387 15.209C54.474 15.5601 54.2221 16.0129 54.1155 16.5091C54.009 17.0053 54.0526 17.5221 54.2407 17.9932C54.4289 18.4642 54.753 18.868 55.1714 19.1525C55.5898 19.437 56.0834 19.5893 56.5886 19.5897C56.9183 19.6136 57.2493 19.5677 57.5602 19.455C57.8712 19.3424 58.1551 19.1655 58.3937 18.9357C58.6324 18.706 58.8204 18.4285 58.9457 18.1212C59.0709 17.8139 59.1306 17.4836 59.1209 17.1517Z" fill="#374151"/>
<path d="M63.9533 17.3637C63.9533 16.2626 64.2784 15.1862 64.8876 14.2708C65.4967 13.3555 66.3625 12.6422 67.3753 12.2213C68.3881 11.8004 69.5024 11.6908 70.5772 11.9064C71.652 12.122 72.639 12.6531 73.4133 13.4324C74.1875 14.2117 74.7143 15.2043 74.9268 16.2845C75.1394 17.3647 75.0282 18.484 74.6073 19.5007C74.1864 20.5174 73.4748 21.3858 72.5624 21.996C71.6501 22.6062 70.5781 22.9308 69.4821 22.9287C68.7532 22.9358 68.0302 22.7966 67.3555 22.5193C66.6808 22.2421 66.0681 21.8322 65.5531 21.3139C65.0382 20.7956 64.6314 20.1792 64.3567 19.5009C64.082 18.8226 63.9448 18.096 63.9533 17.3637ZM71.8877 17.3637C71.8753 16.8881 71.7234 16.4269 71.4511 16.0377C71.1789 15.6485 70.7983 15.3486 70.3572 15.1758C69.9161 15.0029 69.4339 14.9646 68.9713 15.0658C68.5086 15.167 68.0859 15.4031 67.7562 15.7445C67.4265 16.086 67.2045 16.5176 67.1178 16.9852C67.0312 17.4529 67.0839 17.9359 67.2693 18.3736C67.4547 18.8113 67.7646 19.1843 68.1601 19.4459C68.5556 19.7075 69.0191 19.846 69.4926 19.8441C69.8147 19.8504 70.1346 19.7899 70.4324 19.6664C70.7301 19.5428 70.9993 19.3589 71.2231 19.1261C71.4469 18.8933 71.6205 18.6167 71.7331 18.3134C71.8456 18.0102 71.8947 17.6869 71.8772 17.3637H71.8877Z" fill="#374151"/>
<path d="M76.4775 9.30765C76.4775 8.93447 76.5877 8.56968 76.7941 8.2594C77.0004 7.94911 77.2937 7.70728 77.6369 7.56447C77.9801 7.42166 78.3577 7.3843 78.722 7.4571C79.0864 7.5299 79.421 7.7096 79.6837 7.97348C79.9463 8.23735 80.1252 8.57355 80.1976 8.93955C80.2701 9.30555 80.2329 9.68493 80.0908 10.0297C79.9486 10.3745 79.7079 10.6691 79.3991 10.8765C79.0902 11.0838 78.7271 11.1944 78.3556 11.1944C77.8592 11.1889 77.3847 10.9884 77.0337 10.6357C76.6827 10.2831 76.483 9.80635 76.4775 9.30765ZM76.7835 12.1166H79.9489V22.6107H76.7835V12.1166Z" fill="#374151"/>
<path d="M93.4965 17.3637C93.532 18.0616 93.4297 18.7597 93.1956 19.4178C92.9615 20.0758 92.6001 20.6809 92.1324 21.1981C91.6646 21.7153 91.0997 22.1345 90.47 22.4315C89.8404 22.7285 89.1585 22.8975 88.4636 22.9287C87.8739 22.9681 87.283 22.8733 86.7349 22.6512C86.1868 22.4291 85.6957 22.0855 85.2982 21.6461V26.8295H82.1329V12.1167H85.2982V13.1025C85.6962 12.6644 86.1877 12.3224 86.7358 12.1022C87.284 11.8819 87.8746 11.789 88.4636 11.8305C89.1557 11.8618 89.8349 12.0298 90.4624 12.3248C91.0899 12.6198 91.6534 13.0361 92.1207 13.5499C92.5881 14.0637 92.9501 14.665 93.1862 15.3194C93.4222 15.9737 93.5277 16.6684 93.4965 17.3637ZM90.3311 17.3637C90.3187 16.8714 90.1618 16.3937 89.8803 15.9906C89.5987 15.5874 89.205 15.2767 88.7485 15.0974C88.2919 14.9181 87.7928 14.8782 87.3137 14.9827C86.8347 15.0871 86.397 15.3313 86.0555 15.6846C85.714 16.0379 85.4839 16.4846 85.394 16.9687C85.3041 17.4529 85.3585 17.9529 85.5503 18.4061C85.7421 18.8593 86.0628 19.2456 86.4722 19.5165C86.8815 19.7874 87.3614 19.9309 87.8516 19.9289C88.1874 19.9432 88.5224 19.8861 88.8346 19.7612C89.1468 19.6364 89.4293 19.4466 89.6634 19.2044C89.8975 18.9622 90.078 18.673 90.1931 18.3558C90.3082 18.0385 90.3552 17.7005 90.3311 17.3637Z" fill="#374151"/>
<path d="M103.13 19.4625C103.13 21.8793 101.019 22.9075 98.7826 22.9075C97.8703 22.99 96.9543 22.7957 96.153 22.3497C95.3517 21.9038 94.702 21.2267 94.2878 20.4059L97.01 18.8583C97.1178 19.2365 97.3517 19.5661 97.6724 19.7918C97.9932 20.0176 98.3814 20.1258 98.772 20.0985C99.5212 20.0985 99.901 19.8653 99.901 19.4413C99.901 18.2859 94.7626 18.9007 94.7626 15.2649C94.7626 12.9753 96.6829 11.8305 98.8564 11.8305C99.6826 11.7933 100.503 11.9816 101.232 12.3754C101.96 12.7692 102.568 13.3538 102.992 14.0671L100.27 15.5087C100.15 15.2352 99.9535 15.0026 99.7045 14.8389C99.4555 14.6753 99.1646 14.5876 98.867 14.5865C98.3183 14.5865 97.9913 14.7985 97.9913 15.1695C97.9913 16.3779 103.13 15.5829 103.13 19.4625Z" fill="#374151"/>
<path d="M114.599 12.1167V22.6107H111.433V21.6249C111.074 22.0613 110.617 22.4066 110.1 22.6331C109.583 22.8596 109.021 22.9608 108.458 22.9287C106.348 22.9287 104.543 21.4129 104.543 18.5827V12.1167H107.709V18.1057C107.684 18.3561 107.713 18.6089 107.795 18.8467C107.877 19.0845 108.009 19.3017 108.183 19.4831C108.357 19.6645 108.567 19.8059 108.801 19.8975C109.034 19.9891 109.284 20.0288 109.534 20.0137C110.674 20.0137 111.476 19.3353 111.476 17.8937V12.1167H114.599Z" fill="#374151"/>
<path d="M132.536 16.1659V22.6107H129.37V16.4415C129.37 15.3815 128.874 14.7243 127.872 14.7243C126.87 14.7243 126.237 15.4557 126.237 16.6959V22.6107H123.071V16.4415C123.071 15.3815 122.575 14.7243 121.573 14.7243C120.571 14.7243 119.938 15.4557 119.938 16.6959V22.6107H116.772V12.1167H119.938V13.0813C120.265 12.6551 120.693 12.3176 121.183 12.0993C121.673 11.8809 122.21 11.7885 122.744 11.8305C123.279 11.8024 123.813 11.9147 124.292 12.1563C124.771 12.3979 125.179 12.7605 125.477 13.2085C125.825 12.7404 126.285 12.3685 126.814 12.1276C127.344 11.8866 127.926 11.7844 128.505 11.8305C130.974 11.8305 132.536 13.5477 132.536 16.1659Z" fill="#374151"/>
<path d="M14.8377 4.53771V0.0327148H0.699219V30.9847H14.8377V26.4797C11.9415 26.4797 9.16381 25.3238 7.11584 23.2664C5.06786 21.2089 3.91732 18.4184 3.91732 15.5087C3.91732 12.599 5.06786 9.80851 7.11584 7.75104C9.16381 5.69358 11.9415 4.53771 14.8377 4.53771Z" fill="#374151"/>
<path d="M14.8377 4.53771V26.4797C17.734 26.4797 20.5116 25.3238 22.5596 23.2664C24.6076 21.2089 25.7581 18.4184 25.7581 15.5087C25.7581 12.599 24.6076 9.80851 22.5596 7.75105C20.5116 5.69359 17.734 4.53771 14.8377 4.53771Z" fill="#374151"/>
<path d="M135.195 12.0531C136.477 12.0531 137.516 11.009 137.516 9.72109C137.516 8.43316 136.477 7.38908 135.195 7.38908C133.913 7.38908 132.873 8.43316 132.873 9.72109C132.873 11.009 133.913 12.0531 135.195 12.0531Z" fill="#374151"/>
</g>
</svg>
