<svg width="124" height="25" viewBox="0 0 124 25" fill="none" xmlns="http://www.w3.org/2000/svg">
<g id="Logo" opacity="0.6">
<path d="M40.1995 20.2018C39.5753 20.2354 38.9579 20.0595 38.4469 19.7026C38.2334 19.5458 38.0616 19.3398 37.9464 19.1024C37.8312 18.8651 37.7761 18.6035 37.7857 18.3402V8.69945C37.7806 8.65864 37.785 8.6172 37.7985 8.57831C37.812 8.53941 37.8342 8.50408 37.8636 8.47499C37.8929 8.44591 37.9286 8.42385 37.9678 8.41048C38.0071 8.39711 38.0489 8.39279 38.0901 8.39785H39.8532C40.0526 8.39785 40.147 8.50185 40.147 8.69945V17.5914C40.147 17.9866 40.3255 18.1842 40.6928 18.1842C40.8485 18.1906 41.0042 18.1731 41.1545 18.1322C41.3644 18.1322 41.4799 18.1946 41.4904 18.3818L41.6478 19.6818C41.6553 19.7197 41.6546 19.7588 41.6457 19.7964C41.6367 19.834 41.6197 19.8693 41.5959 19.8998C41.572 19.9304 41.5418 19.9555 41.5073 19.9735C41.4728 19.9915 41.4348 20.002 41.3959 20.0042C41.0097 20.1307 40.6062 20.1973 40.1995 20.2018Z" fill="#374151"/>
<path d="M50.117 19.0891C49.2311 19.8145 48.1178 20.2113 46.9686 20.2113C45.8194 20.2113 44.7061 19.8145 43.8202 19.0891C43.0415 18.3101 42.6047 17.258 42.6047 16.1615C42.6047 15.065 43.0415 14.0129 43.8202 13.2339C44.7078 12.5123 45.8205 12.1179 46.9686 12.1179C48.1167 12.1179 49.2294 12.5123 50.117 13.2339C50.8777 14.0201 51.3025 15.0671 51.3025 16.1563C51.3025 17.2455 50.8777 18.2926 50.117 19.0787V19.0891ZM45.4784 17.7163C45.8895 18.0854 46.4244 18.2898 46.9791 18.2898C47.5338 18.2898 48.0687 18.0854 48.4798 17.7163C48.8519 17.2923 49.0569 16.7494 49.0569 16.1875C49.0569 15.6256 48.8519 15.0827 48.4798 14.6587C48.0687 14.2897 47.5338 14.0853 46.9791 14.0853C46.4244 14.0853 45.8895 14.2897 45.4784 14.6587C45.1063 15.0827 44.9013 15.6256 44.9013 16.1875C44.9013 16.7494 45.1063 17.2923 45.4784 17.7163Z" fill="#374151"/>
<path d="M61.0105 12.3811C61.2099 12.3811 61.3044 12.4851 61.3044 12.6827V20.1395C61.3227 20.6427 61.2277 21.1437 61.0262 21.6061C60.8247 22.0684 60.5218 22.4804 60.1395 22.8123C59.2909 23.5293 58.1996 23.9009 57.0855 23.8523C56.0792 23.8873 55.0864 23.615 54.2414 23.0723C53.8806 22.8375 53.5724 22.5317 53.3359 22.1738C53.0994 21.816 52.9397 21.4138 52.8666 20.9923C52.8666 20.7843 52.8666 20.6907 53.15 20.6907H54.9131C54.988 20.6932 55.0605 20.7171 55.1219 20.7595C55.1834 20.802 55.2311 20.8611 55.2594 20.9299C55.3738 21.2457 55.6017 21.5086 55.8996 21.6683C56.2626 21.8539 56.6666 21.9468 57.075 21.9387C57.3214 21.952 57.5681 21.9166 57.8005 21.8345C58.0329 21.7523 58.2465 21.6251 58.4288 21.4603C58.5953 21.2878 58.7249 21.0837 58.8097 20.8603C58.8944 20.6368 58.9327 20.3987 58.9221 20.1603V19.5051C58.2908 19.9652 57.5225 20.2031 56.7392 20.1811C56.1909 20.2008 55.6443 20.1106 55.1321 19.9158C54.62 19.721 54.1528 19.4256 53.7587 19.0475C53.0021 18.2717 52.5791 17.2351 52.5791 16.1563C52.5791 15.0774 53.0021 14.0408 53.7587 13.2651C54.1547 12.8902 54.6224 12.5977 55.1343 12.4048C55.6462 12.2119 56.1919 12.1225 56.7392 12.1419C57.5452 12.1208 58.3341 12.374 58.9745 12.8595V12.6931C58.9697 12.6532 58.9739 12.6128 58.9868 12.5747C58.9997 12.5367 59.021 12.502 59.0492 12.4731C59.0773 12.4442 59.1116 12.4219 59.1495 12.4078C59.1874 12.3937 59.228 12.3881 59.2684 12.3915L61.0105 12.3811ZM56.9386 18.3299C57.209 18.3381 57.4779 18.2875 57.7263 18.1815C57.9748 18.0754 58.1967 17.9166 58.3764 17.7163C58.7253 17.2697 58.9146 16.721 58.9146 16.1563C58.9146 15.5915 58.7253 15.0428 58.3764 14.5963C58.1973 14.3986 57.9767 14.2422 57.7302 14.1379C57.4836 14.0337 57.217 13.9843 56.9491 13.9931C56.6756 13.9845 56.4035 14.035 56.1516 14.1409C55.8997 14.2469 55.6741 14.4058 55.4903 14.6067C55.1038 15.0338 54.9005 15.5934 54.9236 16.1667C54.9047 16.7343 55.1034 17.288 55.4798 17.7163C55.6641 17.9166 55.8898 18.0751 56.1415 18.181C56.3933 18.2869 56.6652 18.3377 56.9386 18.3299Z" fill="#374151"/>
<path d="M70.3613 19.0891C69.4736 19.8107 68.361 20.2051 67.2129 20.2051C66.0647 20.2051 64.9521 19.8107 64.0645 19.0891C63.3031 18.3012 62.878 17.2524 62.878 16.1615C62.878 15.0705 63.3031 14.0217 64.0645 13.2339C64.953 12.5141 66.0653 12.1209 67.2129 12.1209C68.3605 12.1209 69.4728 12.5141 70.3613 13.2339C71.122 14.02 71.5467 15.0671 71.5467 16.1563C71.5467 17.2454 71.122 18.2925 70.3613 19.0787V19.0891ZM65.7121 17.7163C65.9133 17.9059 66.1505 18.0541 66.4099 18.1523C66.6693 18.2505 66.9458 18.2967 67.2234 18.2883C67.4992 18.2953 67.7737 18.2485 68.0312 18.1503C68.2887 18.0522 68.5242 17.9047 68.7241 17.7163C69.0901 17.2894 69.2911 16.7476 69.2911 16.1875C69.2911 15.6273 69.0901 15.0855 68.7241 14.6587C68.5242 14.4702 68.2887 14.3227 68.0312 14.2246C67.7737 14.1264 67.4992 14.0796 67.2234 14.0867C66.9458 14.0782 66.6693 14.1244 66.4099 14.2226C66.1505 14.3208 65.9133 14.469 65.7121 14.6587C65.3461 15.0855 65.1451 15.6273 65.1451 16.1875C65.1451 16.7476 65.3461 17.2894 65.7121 17.7163Z" fill="#374151"/>
<path d="M75.3358 10.6131C75.0584 10.8537 74.7023 10.9864 74.3336 10.9864C73.9649 10.9864 73.6087 10.8537 73.3313 10.6131C73.2055 10.4955 73.1053 10.3536 73.0369 10.1962C72.9684 10.0389 72.933 9.86928 72.933 9.69789C72.933 9.52651 72.9684 9.35693 73.0369 9.19955C73.1053 9.04218 73.2055 8.90032 73.3313 8.78269C73.6116 8.54808 73.9667 8.41937 74.3336 8.41937C74.7005 8.41937 75.0555 8.54808 75.3358 8.78269C75.4616 8.90032 75.5618 9.04218 75.6303 9.19955C75.6988 9.35693 75.7341 9.52651 75.7341 9.69789C75.7341 9.86928 75.6988 10.0389 75.6303 10.1962C75.5618 10.3536 75.4616 10.4955 75.3358 10.6131ZM75.5562 20.2019C74.9324 20.2322 74.316 20.0566 73.8036 19.7027C73.5933 19.5435 73.4245 19.3368 73.3113 19.0998C73.1981 18.8628 73.1438 18.6024 73.1529 18.3403V12.6827C73.1478 12.6419 73.1522 12.6004 73.1657 12.5615C73.1792 12.5227 73.2014 12.4873 73.2308 12.4582C73.2601 12.4292 73.2958 12.4071 73.335 12.3937C73.3743 12.3804 73.4161 12.376 73.4573 12.3811H75.2204C75.4198 12.3811 75.5142 12.4851 75.5142 12.6827V17.5915C75.5142 17.9867 75.6926 18.1843 76.0495 18.1843C76.2086 18.19 76.3677 18.1724 76.5217 18.1323C76.7316 18.1323 76.8471 18.1947 76.8576 18.3819L77.015 19.6819C77.0225 19.7198 77.0218 19.7589 77.0129 19.7965C77.0039 19.8341 76.9869 19.8693 76.9631 19.8999C76.9392 19.9304 76.909 19.9556 76.8745 19.9736C76.84 19.9916 76.802 20.0021 76.7631 20.0043C76.3735 20.1314 75.9664 20.1981 75.5562 20.2019Z" fill="#374151"/>
<path d="M83.5008 12.1315C84.0515 12.1099 84.601 12.1983 85.1166 12.3912C85.6322 12.5842 86.1034 12.8778 86.5023 13.2547C87.2444 14.044 87.6571 15.0827 87.6571 16.1615C87.6571 17.2403 87.2444 18.279 86.5023 19.0683C86.1053 19.4486 85.6347 19.7451 85.1188 19.9399C84.6029 20.1348 84.0525 20.2239 83.5008 20.2019C82.7149 20.2192 81.9448 19.9819 81.3074 19.5259V23.2803C81.3074 23.4779 81.2025 23.5715 81.0031 23.5715H79.24C79.1997 23.579 79.1583 23.5766 79.1192 23.5646C79.0801 23.5526 79.0445 23.5313 79.0156 23.5027C78.9866 23.474 78.9652 23.4387 78.9531 23.4C78.941 23.3613 78.9386 23.3202 78.9461 23.2803V14.7523C78.9585 14.6689 78.951 14.5838 78.9242 14.5037C78.8975 14.4237 78.8522 14.351 78.792 14.2914C78.7319 14.2318 78.6585 14.1869 78.5777 14.1604C78.497 14.1339 78.4111 14.1265 78.3269 14.1387H77.9806C77.7497 14.1387 77.6343 14.0555 77.6343 13.8891V12.6619C77.6288 12.586 77.6498 12.5105 77.6937 12.448C77.7376 12.3856 77.8019 12.3399 77.8756 12.3187C78.2387 12.1879 78.6229 12.1245 79.0091 12.1315C79.3942 12.0977 79.7807 12.1787 80.1192 12.364C80.4576 12.5492 80.7325 12.8304 80.9086 13.1715C81.2467 12.8326 81.6509 12.5656 82.0966 12.3868C82.5423 12.208 83.0201 12.1211 83.5008 12.1315ZM81.8636 17.7163C82.0508 17.9101 82.2756 18.0643 82.5245 18.1697C82.7734 18.2751 83.0412 18.3294 83.3119 18.3294C83.5826 18.3294 83.8504 18.2751 84.0993 18.1697C84.3483 18.0643 84.573 17.9101 84.7602 17.7163C85.1544 17.2807 85.3614 16.7098 85.3374 16.1251C85.3649 15.5399 85.1573 14.9678 84.7602 14.5339C84.573 14.3401 84.3483 14.1859 84.0993 14.0805C83.8504 13.9751 83.5826 13.9208 83.3119 13.9208C83.0412 13.9208 82.7734 13.9751 82.5245 14.0805C82.2756 14.1859 82.0508 14.3401 81.8636 14.5339C81.4818 14.9755 81.283 15.5441 81.3074 16.1251C81.2861 16.7057 81.4845 17.2732 81.8636 17.7163Z" fill="#374151"/>
<path d="M92.6101 20.2018C91.668 20.2402 90.7338 20.0169 89.913 19.557C89.5836 19.3605 89.3032 19.0929 89.0924 18.7742C88.8817 18.4556 88.746 18.094 88.6956 17.7162C88.6956 17.5082 88.769 17.4042 88.9999 17.4042H90.5427C90.616 17.4071 90.6872 17.4299 90.7483 17.4703C90.8094 17.5107 90.8581 17.567 90.889 17.633C91.1094 18.1946 91.6866 18.4754 92.6101 18.4754C92.9323 18.49 93.2531 18.4257 93.5441 18.2882C93.6446 18.2433 93.7309 18.1721 93.7937 18.0824C93.8566 17.9926 93.8936 17.8876 93.901 17.7786C93.901 17.5082 93.733 17.321 93.3972 17.1962C92.9989 17.0649 92.5871 16.9777 92.1693 16.9362C91.6745 16.8807 91.1837 16.7939 90.7001 16.6762C90.2297 16.5707 89.8021 16.328 89.4722 15.9794C89.2779 15.7425 89.1349 15.4685 89.0521 15.1745C88.9693 14.8804 88.9484 14.5726 88.9907 14.2702C89.033 13.9679 89.1377 13.6773 89.2981 13.4167C89.4586 13.1561 89.6715 12.931 89.9235 12.7554C90.6799 12.2779 91.5674 12.0453 92.4632 12.0898C93.3304 12.0608 94.1885 12.2734 94.9399 12.7034C95.2428 12.8734 95.5035 13.1082 95.7032 13.3906C95.9029 13.6731 96.0366 13.9961 96.0944 14.3362C96.0944 14.5442 95.9999 14.6482 95.811 14.6482H94.2578C94.1924 14.6521 94.1273 14.6363 94.0712 14.6029C94.015 14.5695 93.9703 14.52 93.9429 14.461C93.8392 14.2147 93.6438 14.0174 93.3972 13.9098C93.1191 13.7656 92.8085 13.6941 92.4947 13.7018C92.187 13.6853 91.8802 13.7461 91.6026 13.8786C91.5048 13.916 91.4206 13.9816 91.3607 14.0668C91.3009 14.1521 91.2682 14.2532 91.2668 14.357C91.2735 14.4993 91.326 14.6356 91.4167 14.746C91.5074 14.8565 91.6314 14.9352 91.7705 14.9706C92.1736 15.1212 92.5925 15.2258 93.0194 15.2826C93.5102 15.3466 93.9972 15.4369 94.4782 15.553C94.9485 15.6585 95.3762 15.9012 95.7061 16.2498C95.8825 16.4419 96.0188 16.6667 96.1071 16.9112C96.1953 17.1558 96.2338 17.4153 96.2203 17.6746C96.2294 18.0341 96.1442 18.3898 95.9731 18.707C95.8021 19.0242 95.551 19.292 95.2443 19.4842C94.4602 19.9831 93.5413 20.2334 92.6101 20.2018Z" fill="#374151"/>
<path d="M107.313 19.6819C107.319 19.7188 107.318 19.7565 107.309 19.7928C107.3 19.8292 107.283 19.8633 107.261 19.8934C107.239 19.9234 107.21 19.9487 107.178 19.9677C107.145 19.9868 107.109 19.9992 107.072 20.0043C106.689 20.1282 106.289 20.1948 105.886 20.2019C105.487 20.2428 105.084 20.181 104.717 20.0225C104.349 19.864 104.029 19.6141 103.787 19.2971C103.046 19.9286 102.087 20.2527 101.111 20.2019C100.658 20.2225 100.205 20.149 99.782 19.9861C99.3591 19.8231 98.9752 19.5742 98.6551 19.2555C98.3373 18.9215 98.0907 18.5273 97.9302 18.0966C97.7697 17.666 97.6986 17.2076 97.7211 16.7491V12.6827C97.7211 12.4851 97.8156 12.3811 98.015 12.3811H99.7781C99.9775 12.3811 100.072 12.4851 100.072 12.6827V16.4371C100.053 16.9048 100.214 17.3622 100.523 17.7163C100.677 17.8784 100.865 18.006 101.073 18.0903C101.281 18.1746 101.505 18.2137 101.73 18.2051C101.96 18.215 102.19 18.1797 102.406 18.1012C102.622 18.0226 102.82 17.9024 102.989 17.7475C103.149 17.5841 103.274 17.39 103.355 17.1772C103.436 16.9643 103.473 16.7372 103.462 16.5099V12.6827C103.462 12.4851 103.556 12.3811 103.756 12.3811H105.54C105.739 12.3811 105.834 12.4851 105.834 12.6827V17.5811C105.834 17.9867 106.012 18.1843 106.358 18.1843C106.521 18.1905 106.684 18.173 106.841 18.1323C106.881 18.1212 106.922 18.1192 106.963 18.1265C107.003 18.1337 107.042 18.1499 107.075 18.1739C107.109 18.1979 107.136 18.2291 107.155 18.2651C107.175 18.3012 107.186 18.3411 107.187 18.3819L107.313 19.6819Z" fill="#374151"/>
<path d="M123.989 19.6819C123.999 19.7191 124 19.758 123.992 19.7956C123.984 19.8332 123.968 19.8687 123.945 19.8995C123.922 19.9304 123.893 19.9557 123.859 19.9739C123.824 19.992 123.787 20.0024 123.748 20.0043C123.358 20.13 122.951 20.1966 122.541 20.2019C121.917 20.2338 121.3 20.0581 120.788 19.7027C120.567 19.5505 120.387 19.3465 120.265 19.1088C120.142 18.8712 120.08 18.6072 120.085 18.3403V15.8963C120.107 15.4299 119.95 14.9727 119.645 14.6171C119.497 14.4545 119.315 14.3264 119.112 14.2419C118.909 14.1573 118.689 14.1186 118.469 14.1283C118.271 14.1209 118.073 14.1582 117.891 14.2375C117.709 14.3167 117.548 14.4359 117.42 14.5859C117.143 14.9344 117.001 15.3699 117.021 15.8131V19.6507C117.021 19.8483 116.926 19.9523 116.727 19.9523H114.953C114.912 19.9574 114.87 19.953 114.831 19.9397C114.792 19.9263 114.756 19.9042 114.727 19.8751C114.698 19.8461 114.675 19.8107 114.662 19.7718C114.648 19.7329 114.644 19.6915 114.649 19.6507V15.8963C114.672 15.435 114.527 14.981 114.24 14.6171C114.112 14.4642 113.951 14.3412 113.77 14.2567C113.589 14.1722 113.391 14.1284 113.19 14.1283C112.976 14.1197 112.763 14.1561 112.564 14.2349C112.365 14.3138 112.185 14.4334 112.036 14.5859C111.736 14.9233 111.581 15.364 111.606 15.8131V19.6507C111.611 19.6915 111.606 19.7329 111.593 19.7718C111.579 19.8107 111.557 19.8461 111.528 19.8751C111.498 19.9042 111.463 19.9263 111.423 19.9397C111.384 19.953 111.342 19.9574 111.301 19.9523H109.591C109.391 19.9523 109.297 19.8483 109.297 19.6507V14.7523C109.309 14.6689 109.302 14.5838 109.275 14.5037C109.248 14.4237 109.203 14.351 109.143 14.2914C109.083 14.2317 109.009 14.1869 108.928 14.1604C108.848 14.1339 108.762 14.1265 108.678 14.1387H108.331C108.1 14.1387 107.985 14.0555 107.985 13.8891V12.6619C107.979 12.586 108 12.5105 108.044 12.448C108.088 12.3856 108.152 12.3399 108.226 12.3187C108.589 12.1879 108.973 12.1245 109.36 12.1315C109.73 12.1002 110.103 12.1734 110.433 12.3427C110.764 12.512 111.039 12.7705 111.228 13.0883C111.582 12.7557 112.001 12.4991 112.46 12.3345C112.919 12.1699 113.407 12.1008 113.893 12.1315C114.366 12.1086 114.838 12.1965 115.27 12.3881C115.702 12.5796 116.083 12.8694 116.381 13.2339C116.728 12.8598 117.155 12.5669 117.63 12.3762C118.106 12.1856 118.618 12.102 119.13 12.1315C119.588 12.1103 120.046 12.1834 120.474 12.3463C120.902 12.5092 121.291 12.7583 121.618 13.0779C121.936 13.4112 122.184 13.8052 122.344 14.2361C122.505 14.6669 122.575 15.1256 122.552 15.5843V17.5915C122.552 17.9867 122.73 18.1843 123.066 18.1843C123.228 18.1918 123.391 18.1743 123.549 18.1323C123.765 18.1323 123.881 18.2155 123.895 18.3819L123.989 19.6819Z" fill="#374151"/>
<path d="M0.92833 11.0291C1.7026 7.94517 3.49578 5.20658 6.02236 3.24941C8.54895 1.29224 11.6637 0.229004 14.8706 0.229004C18.0775 0.229004 21.1922 1.29224 23.7188 3.24941C26.2453 5.20658 28.0385 7.94517 28.8128 11.0291H27.5534C25.429 10.9981 23.348 11.6273 21.6029 12.8283C21.5022 12.9006 21.3971 12.9666 21.2881 13.0259H21.1412C21.0322 12.9666 20.927 12.9006 20.8263 12.8283C19.0657 11.6551 16.9922 11.0285 14.8706 11.0285C12.7489 11.0285 10.6754 11.6551 8.91481 12.8283C8.81409 12.9006 8.70894 12.9666 8.59997 13.0259H8.45304C8.34407 12.9666 8.23892 12.9006 8.1382 12.8283C6.39307 11.6273 4.31216 10.9981 2.1877 11.0291H0.92833ZM25.2866 17.5499C25.933 17.051 26.7343 16.79 27.5534 16.8115H29.2431V13.4731H27.5534C26.1106 13.4558 24.7008 13.9008 23.5339 14.7419C22.8773 15.2217 22.0829 15.4805 21.2671 15.4805C20.4513 15.4805 19.6569 15.2217 19.0002 14.7419C17.8037 13.9165 16.3809 13.4741 14.923 13.4741C13.4652 13.4741 12.0423 13.9165 10.8458 14.7419C10.1892 15.2217 9.39479 15.4805 8.57898 15.4805C7.76316 15.4805 6.96877 15.2217 6.31212 14.7419C5.13083 13.8901 3.70082 13.4445 2.24017 13.4731H0.498047V16.8115H2.1877C3.00682 16.79 3.80807 17.051 4.45455 17.5499C5.64886 18.3758 7.07015 18.8187 8.5265 18.8187C9.98286 18.8187 11.4041 18.3758 12.5985 17.5499C13.2458 17.0525 14.0464 16.7917 14.8653 16.8115C15.6847 16.7882 16.4865 17.0494 17.1322 17.5499C18.3287 18.3753 19.7515 18.8178 21.2094 18.8178C22.6672 18.8178 24.0901 18.3753 25.2866 17.5499ZM25.2866 23.5195C25.933 23.0206 26.7343 22.7596 27.5534 22.7811H29.2431V19.4427H27.5534C26.1106 19.4254 24.7008 19.8705 23.5339 20.7115C22.8773 21.1913 22.0829 21.4501 21.2671 21.4501C20.4513 21.4501 19.6569 21.1913 19.0002 20.7115C17.8037 19.8861 16.3809 19.4437 14.923 19.4437C13.4652 19.4437 12.0423 19.8861 10.8458 20.7115C10.1892 21.1913 9.39479 21.4501 8.57898 21.4501C7.76316 21.4501 6.96877 21.1913 6.31212 20.7115C5.13083 19.8597 3.70082 19.4141 2.24017 19.4427H0.498047V22.7811H2.1877C3.00682 22.7596 3.80807 23.0206 4.45455 23.5195C5.64886 24.3454 7.07015 24.7883 8.5265 24.7883C9.98286 24.7883 11.4041 24.3454 12.5985 23.5195C13.2458 23.0221 14.0464 22.7613 14.8653 22.7811C15.6847 22.7578 16.4865 23.019 17.1322 23.5195C18.3287 24.3449 19.7515 24.7874 21.2094 24.7874C22.6672 24.7874 24.0901 24.3449 25.2866 23.5195Z" fill="#374151"/>
</g>
</svg>
