<svg width="135" height="32" viewBox="0 0 135 32" fill="none" xmlns="http://www.w3.org/2000/svg">
<g id="Logo" opacity="0.6">
<path d="M38.9697 9.48191H42.3567V23.1319H38.9697V9.48191ZM43.7072 17.9974C43.7072 14.6164 45.8174 12.5899 48.9828 12.5899C52.1481 12.5899 54.2584 14.6164 54.2584 17.9974C54.2584 21.3784 52.222 23.4259 48.9828 23.4259C45.7436 23.4259 43.7072 21.4519 43.7072 17.9974ZM50.9031 17.9974C50.9031 16.1389 50.1751 15.0469 49.0144 15.0469C47.8538 15.0469 47.1363 16.0969 47.1363 17.9974C47.1363 19.8979 47.8538 20.9374 49.0144 20.9374C50.1751 20.9374 50.9242 19.8979 50.9242 18.0079L50.9031 17.9974ZM55.6089 23.8354H58.8797C59.0287 24.1858 59.2887 24.4782 59.6202 24.6678C59.9517 24.8573 60.3364 24.9338 60.7157 24.8854C62.0134 24.8854 62.6887 24.1924 62.6887 23.1634V21.2734H62.6993C62.4198 21.8619 61.9678 22.3524 61.4028 22.6804C60.8378 23.0084 60.1863 23.1585 59.5339 23.1109C57.0544 23.1109 55.4084 21.2314 55.4084 17.9974C55.4084 14.7634 56.9805 12.7474 59.6289 12.7474C60.2979 12.7118 60.9616 12.8835 61.5285 13.2389C62.0954 13.5943 62.5376 14.116 62.7942 14.7319H62.6993V12.8314H66.0545V23.0584C66.0545 25.5259 63.8599 27.0694 60.6312 27.0694C57.698 27.0589 55.8199 25.7254 55.63 23.8459L55.6089 23.8354ZM62.6993 17.9974C62.6993 16.3489 61.9396 15.3094 60.7368 15.3094C59.5339 15.3094 58.7953 16.3594 58.7953 17.9974C58.7953 19.6354 59.5234 20.6014 60.7368 20.6014C61.9501 20.6014 62.6993 19.7089 62.6993 17.9974ZM67.3945 17.9974C67.3945 14.6164 69.5047 12.5899 72.6701 12.5899C75.8354 12.5899 77.9457 14.6164 77.9457 17.9974C77.9457 21.3784 75.8987 23.4259 72.6701 23.4259C69.4414 23.4259 67.4156 21.4519 67.4156 17.9974H67.3945ZM74.5904 17.9974C74.5904 16.1389 73.8518 15.0469 72.7018 15.0469C71.5517 15.0469 70.8236 16.0969 70.8236 17.9974C70.8236 19.8979 71.5411 20.9374 72.7018 20.9374C73.8624 20.9374 74.6115 19.8979 74.6115 18.0079L74.5904 17.9974ZM79.3173 10.3429C79.3026 9.99958 79.3914 9.65972 79.5723 9.36703C79.7533 9.07435 80.0181 8.84224 80.3327 8.70057C80.6473 8.55889 80.9973 8.51413 81.3377 8.57204C81.6781 8.62995 81.9933 8.78788 82.2427 9.02552C82.4922 9.26316 82.6645 9.56963 82.7374 9.90551C82.8104 10.2414 82.7807 10.5913 82.6522 10.9103C82.5237 11.2292 82.3022 11.5026 82.0163 11.6953C81.7303 11.888 81.393 11.9911 81.0477 11.9914C80.827 11.997 80.6074 11.9589 80.4016 11.8793C80.1959 11.7998 80.008 11.6803 79.849 11.528C79.69 11.3756 79.563 11.1933 79.4753 10.9917C79.3877 10.79 79.3411 10.5731 79.3384 10.3534L79.3173 10.3429ZM79.3173 12.8209H82.7464V23.1739H79.3701L79.3173 12.8209ZM95.0807 17.9974C95.0807 21.3679 93.5614 23.3209 90.9763 23.3209C90.3145 23.3615 89.6561 23.1991 89.0901 22.8554C88.524 22.5118 88.0775 22.0036 87.811 21.3994H87.7477V26.5024H84.3607V12.8524H87.7266V14.7004H87.7899C88.0473 14.0843 88.4894 13.5622 89.0558 13.2052C89.6222 12.8482 90.2855 12.6737 90.9552 12.7054C93.6141 12.6844 95.144 14.6269 95.144 18.0079L95.0807 17.9974ZM91.6305 17.9974C91.6305 16.3594 90.8603 15.2989 89.668 15.2989C88.4757 15.2989 87.7266 16.3489 87.716 17.9974C87.7055 19.6459 88.4757 20.6854 89.668 20.6854C90.8603 20.6854 91.6938 19.7089 91.6938 18.0079L91.6305 17.9974ZM100.863 12.5794C103.701 12.5794 105.463 13.9129 105.484 16.0549H102.393C102.393 15.3094 101.77 14.8474 100.842 14.8474C99.9131 14.8474 99.47 15.2044 99.47 15.7399C99.47 16.2754 99.8604 16.4434 100.641 16.6009L102.815 17.0419C104.925 17.4829 105.769 18.3229 105.769 19.8874C105.769 21.9874 103.817 23.4154 100.915 23.4154C98.0139 23.4154 96.1253 22.0294 95.9881 19.9189H99.2695C99.3645 20.6854 99.9764 21.1369 100.968 21.1369C101.96 21.1369 102.424 20.8219 102.424 20.2654C102.424 19.7089 102.108 19.6144 101.295 19.4464L99.3328 19.0369C97.2965 18.6064 96.2308 17.5459 96.2308 15.9604C96.2941 13.9024 98.0667 12.5899 100.926 12.5899L100.863 12.5794ZM117.112 23.1634H113.83V21.2209H113.767C113.583 21.8688 113.183 22.4351 112.633 22.8264C112.082 23.2177 111.414 23.4106 110.739 23.3734C110.229 23.3899 109.721 23.299 109.249 23.1064C108.777 22.9139 108.351 22.6242 107.999 22.2564C107.647 21.8885 107.378 21.4508 107.208 20.972C107.038 20.4931 106.972 19.984 107.014 19.4779V12.8314H110.401V18.7534C110.401 19.9714 111.045 20.6329 112.1 20.6329C112.347 20.6311 112.592 20.5764 112.816 20.4725C113.04 20.3687 113.24 20.2182 113.401 20.031C113.562 19.8439 113.681 19.6246 113.749 19.3879C113.818 19.1512 113.835 18.9026 113.798 18.6589V12.8314H117.175L117.112 23.1634ZM118.747 12.8209H122.039V14.8159H122.113C122.295 14.1768 122.684 13.6158 123.221 13.2206C123.757 12.8254 124.41 12.6184 125.078 12.6319C125.748 12.5739 126.415 12.7667 126.95 13.1726C127.484 13.5784 127.848 14.1681 127.969 14.8264H128.116C128.327 14.1646 128.752 13.5907 129.324 13.1938C129.897 12.797 130.585 12.5994 131.282 12.6319C131.745 12.6144 132.207 12.6944 132.636 12.8666C133.066 13.0389 133.455 13.2996 133.777 13.6317C134.098 13.9637 134.346 14.3596 134.503 14.7935C134.661 15.2274 134.724 15.6894 134.69 16.1494V23.1739H131.282V17.0104C131.282 15.9604 130.786 15.3724 129.826 15.3724C129.613 15.3689 129.401 15.4113 129.207 15.4967C129.012 15.582 128.837 15.7083 128.696 15.8669C128.555 16.0255 128.45 16.2126 128.388 16.4154C128.326 16.6182 128.309 16.8319 128.338 17.0419V23.1739H125.109V16.9789C125.109 15.9289 124.592 15.3724 123.664 15.3724C123.449 15.3707 123.236 15.4148 123.039 15.5018C122.842 15.5888 122.667 15.7166 122.524 15.8768C122.381 16.0369 122.274 16.2255 122.21 16.4301C122.147 16.6347 122.128 16.8505 122.155 17.0629V23.1739H118.768L118.747 12.8209Z" fill="#374151"/>
<path d="M32.2697 10.3745C32.2698 8.28468 31.6356 6.24355 30.4503 4.51846C29.265 2.79337 27.5837 1.46476 25.6268 0.706655C23.6698 -0.0514509 21.5284 -0.203703 19.483 0.269839C17.4376 0.74338 15.5837 1.82064 14.1639 3.36051H0.996094V31.0175H28.7983V18.092C29.8896 17.1207 30.7627 15.9314 31.3609 14.6016C31.959 13.2718 32.2687 11.8314 32.2697 10.3745ZM26.9202 10.3745C26.9223 11.3759 26.6258 12.3554 26.0683 13.1891C25.5107 14.0228 24.7172 14.6731 23.7881 15.0577C22.859 15.4424 21.8361 15.5441 20.8489 15.35C19.8617 15.1559 18.9545 14.6748 18.2422 13.9674C17.5299 13.26 17.0445 12.3582 16.8474 11.3762C16.6504 10.3942 16.7505 9.37607 17.1351 8.45068C17.5197 7.52529 18.1715 6.73425 19.0081 6.17767C19.8446 5.62109 20.8283 5.32401 21.8346 5.324C23.1816 5.324 24.4735 5.85577 25.427 6.80262C26.3804 7.74947 26.9174 9.03407 26.9202 10.3745ZM23.4489 25.694H6.34552V8.68401H11.5578C11.4571 9.24204 11.4042 9.80757 11.3995 10.3745C11.4023 13.1278 12.5026 15.7675 14.459 17.7144C16.4153 19.6613 19.0679 20.7562 21.8346 20.759C22.3755 20.7562 22.9153 20.7105 23.4489 20.6225V25.694Z" fill="#374151"/>
</g>
</svg>
