<svg width="126" height="29" viewBox="0 0 126 29" fill="none" xmlns="http://www.w3.org/2000/svg">
<g id="Logo" opacity="0.6">
<path d="M36.4696 8.2932H39.6349V21.0297H36.4696V8.2932ZM40.8905 16.2207C40.8905 13.0707 42.8319 11.1912 45.8284 11.1912C48.8249 11.1912 50.7663 13.0707 50.7663 16.2207C50.7663 19.3707 48.8671 21.2607 45.8284 21.2607C42.7897 21.2607 40.8905 19.4232 40.8905 16.2207ZM47.5905 16.2207C47.5905 14.4882 46.9046 13.4697 45.8284 13.4697C44.7522 13.4697 44.0769 14.5197 44.0769 16.2207C44.0769 17.9217 44.7416 18.9507 45.8284 18.9507C46.9152 18.9507 47.5905 17.9847 47.5905 16.2312V16.2207ZM51.9586 21.6492H54.9974C55.142 21.9689 55.3865 22.2336 55.6944 22.4039C56.0024 22.5742 56.3575 22.6409 56.7066 22.5942C57.9095 22.5942 58.5425 21.9432 58.5425 20.9982V19.2342H58.4792C58.227 19.7748 57.8178 20.2279 57.3044 20.5348C56.7909 20.8417 56.1968 20.9885 55.5988 20.9562C53.2881 20.9562 51.7582 19.2027 51.7582 16.1892C51.7582 13.1757 53.2142 11.2752 55.641 11.2752C56.2578 11.2511 56.8673 11.4152 57.3877 11.7455C57.9082 12.0758 58.3148 12.5565 58.5531 13.1232V11.3697H61.7184V20.9247C61.7184 23.2242 59.6821 24.6522 56.675 24.6522C53.8789 24.6522 52.138 23.4027 51.9586 21.6597V21.6492ZM58.5531 16.2102C58.5531 14.6772 57.8462 13.7112 56.7277 13.7112C55.6093 13.7112 54.9235 14.6667 54.9235 16.2102C54.9235 17.7537 55.5988 18.6252 56.7277 18.6252C57.8567 18.6252 58.5531 17.7747 58.5531 16.2207V16.2102ZM62.9107 16.2102C62.9107 13.0602 64.8521 11.1807 67.8486 11.1807C70.8452 11.1807 72.7971 13.0602 72.7971 16.2102C72.7971 19.3602 70.8979 21.2502 67.8486 21.2502C64.7994 21.2502 62.9107 19.4232 62.9107 16.2207V16.2102ZM69.6107 16.2102C69.6107 14.4777 68.9249 13.4592 67.8486 13.4592C66.7724 13.4592 66.1499 14.5197 66.1499 16.2312C66.1499 17.9427 66.8146 18.9612 67.8908 18.9612C68.9671 18.9612 69.6107 17.9847 69.6107 16.2312V16.2102ZM74 9.0807C73.9917 8.76266 74.0784 8.44934 74.2493 8.18044C74.4202 7.91154 74.6674 7.69918 74.9597 7.57028C75.252 7.44138 75.5761 7.40175 75.8911 7.45641C76.206 7.51106 76.4976 7.65755 76.7287 7.87729C76.9599 8.09703 77.1203 8.38014 77.1897 8.69072C77.259 9.0013 77.2341 9.32536 77.1181 9.62183C77.0021 9.9183 76.8003 10.1738 76.5382 10.356C76.2761 10.5382 75.9656 10.6389 75.6459 10.6452C75.434 10.6597 75.2214 10.6304 75.0215 10.5592C74.8215 10.488 74.6385 10.3765 74.4839 10.2315C74.3293 10.0866 74.2065 9.91137 74.1233 9.71694C74.04 9.52251 73.998 9.31305 74 9.1017V9.0807ZM74 11.3907H77.1653V21.0297H74V11.3907ZM88.6555 16.2102C88.6555 19.3602 87.2522 21.1557 84.8465 21.1557C84.2297 21.1951 83.6155 21.045 83.0871 20.7258C82.5588 20.4065 82.1416 19.9335 81.8922 19.3707H81.8289V24.1167H78.6636V11.3697H81.8289V13.0917H81.8922C82.13 12.5196 82.5392 12.0342 83.064 11.7017C83.5889 11.3692 84.2039 11.2056 84.8254 11.2332C87.2522 11.2752 88.6977 13.0812 88.6977 16.2312L88.6555 16.2102ZM85.4901 16.2102C85.4901 14.6772 84.7832 13.7007 83.6753 13.7007C82.5675 13.7007 81.8605 14.6877 81.85 16.2102C81.8394 17.7327 82.5675 18.7092 83.6753 18.7092C84.7832 18.7092 85.4901 17.7537 85.4901 16.2312V16.2102ZM94.0893 11.1702C96.7166 11.1702 98.3098 12.4092 98.3836 14.3937H95.5032C95.5032 13.7112 94.9334 13.2807 94.0577 13.2807C93.1819 13.2807 92.7915 13.6167 92.7915 14.1102C92.7915 14.6037 93.1397 14.7612 93.8466 14.9082L95.8725 15.3177C97.8033 15.7272 98.6263 16.5042 98.6263 17.9637C98.6263 19.9587 96.801 21.2397 94.1104 21.2397C91.4199 21.2397 89.6578 19.9587 89.5207 17.9952H92.57C92.6649 18.7092 93.2347 19.1292 94.1632 19.1292C95.0917 19.1292 95.5137 18.8247 95.5137 18.3207C95.5137 17.8167 95.2183 17.7117 94.4586 17.5542L92.6333 17.1657C90.7446 16.7772 89.7528 15.7797 89.7528 14.3097C89.7739 12.4197 91.4726 11.1912 94.0893 11.1912V11.1702ZM109.188 21.0087H106.139V19.2132H106.075C105.908 19.816 105.538 20.3437 105.027 20.7085C104.517 21.0733 103.896 21.2533 103.269 21.2187C102.788 21.2459 102.307 21.1701 101.858 20.9963C101.409 20.8226 101.003 20.5549 100.667 20.2115C100.33 19.8681 100.072 19.457 99.9097 19.0058C99.7471 18.5546 99.6836 18.0739 99.7236 17.5962V11.3697H102.889V16.8717C102.889 18.0162 103.48 18.6252 104.461 18.6252C104.691 18.6257 104.919 18.5772 105.128 18.483C105.338 18.3888 105.525 18.2511 105.677 18.0791C105.829 17.907 105.942 17.7047 106.009 17.4856C106.076 17.2665 106.095 17.0357 106.065 16.8087V11.3697H109.23L109.188 21.0087ZM110.718 11.3697H113.778V13.2282H113.841C114.009 12.6334 114.37 12.1107 114.869 11.7421C115.367 11.3735 115.974 11.1798 116.595 11.1912C117.226 11.1409 117.854 11.329 118.352 11.7181C118.851 12.1072 119.184 12.6688 119.285 13.2912H119.349C119.54 12.6622 119.936 12.1144 120.475 11.7342C121.014 11.354 121.664 11.163 122.324 11.1912C122.755 11.1768 123.183 11.2527 123.582 11.414C123.981 11.5752 124.342 11.8182 124.64 12.1272C124.939 12.4361 125.169 12.8042 125.315 13.2073C125.461 13.6105 125.521 14.0397 125.49 14.4672V21.0297H122.324V15.3072C122.324 14.2572 121.849 13.7742 120.963 13.7742C120.765 13.7725 120.57 13.8131 120.389 13.8931C120.209 13.9731 120.047 14.0907 119.916 14.238C119.785 14.3853 119.688 14.5588 119.63 14.7469C119.572 14.9349 119.555 15.1332 119.581 15.3282V21.0297H116.574V15.2652C116.574 14.2992 116.099 13.7742 115.234 13.7742C115.034 13.7743 114.836 13.8165 114.654 13.8981C114.472 13.9798 114.309 14.0989 114.176 14.2477C114.044 14.3966 113.944 14.5717 113.885 14.7616C113.825 14.9514 113.807 15.1517 113.831 15.3492V21.0297H110.665L110.718 11.3697Z" fill="#374151"/>
<path d="M27.6172 8.87076C27.0802 7.64893 26.3695 6.51029 25.5069 5.48976C24.2318 3.93611 22.6405 2.66882 20.8377 1.7713C19.0349 0.873769 17.0616 0.366356 15.0476 0.282452C13.0336 0.198549 11.0245 0.540055 9.1527 1.2845C7.28086 2.02894 5.58867 3.15944 4.18751 4.60159C2.78634 6.04374 1.70796 7.76485 1.02335 9.65162C0.338735 11.5384 0.0634091 13.5481 0.215495 15.5484C0.36758 17.5487 0.943628 19.4942 1.90572 21.257C2.86782 23.0198 4.19414 24.5598 5.79741 25.7758C6.82615 26.5715 7.96287 27.2185 9.17378 27.6973C10.8715 28.3896 12.6885 28.7462 14.5232 28.7473C18.3104 28.7389 21.9398 27.2366 24.6158 24.5696C27.2919 21.9027 28.7961 18.2886 28.7989 14.5198C28.8017 12.5757 28.3993 10.6522 27.6172 8.87076ZM14.5127 3.16926C16.1603 3.16908 17.788 3.52745 19.2818 4.21926C18.9175 4.37588 18.5345 4.48528 18.1422 4.54476C16.8514 4.73071 15.6556 5.32709 14.7334 6.24489C13.8111 7.16268 13.2118 8.35268 13.0249 9.63725C12.9429 10.3577 12.6137 11.0279 12.0928 11.5348C11.5719 12.0417 10.8912 12.3543 10.1656 12.4198C8.87475 12.6057 7.67896 13.2021 6.75669 14.1199C5.83442 15.0377 5.23513 16.2277 5.04828 17.5123C4.98502 18.1973 4.69133 18.841 4.21474 19.3393C3.39244 17.6102 3.02304 15.7022 3.14092 13.7929C3.2588 11.8835 3.86012 10.0349 4.88892 8.41899C5.91773 6.80309 7.34059 5.47245 9.02508 4.5509C10.7096 3.62934 12.6009 3.14683 14.5232 3.14825L14.5127 3.16926ZM5.78686 21.8698C5.91347 21.7543 6.04009 21.6493 6.1667 21.5233C7.10539 20.6176 7.70792 19.4221 7.87599 18.1318C7.94413 17.4065 8.26954 16.729 8.79393 16.2208C9.29854 15.698 9.97774 15.3769 10.7037 15.3178C11.9945 15.1318 13.1903 14.5354 14.1126 13.6176C15.0349 12.6998 15.6341 11.5098 15.821 10.2253C15.8666 9.46665 16.1938 8.75194 16.7389 8.21976C17.256 7.7072 17.9417 7.39771 18.6698 7.34825C19.8557 7.18589 20.9616 6.66126 21.8351 5.84676C22.8297 6.66793 23.6724 7.6558 24.3252 8.76576C24.2851 8.81967 24.2391 8.86898 24.188 8.91276C23.6844 9.44006 23.0061 9.76826 22.2783 9.83676C20.9861 10.0195 19.7885 10.6148 18.8657 11.5332C17.9428 12.4516 17.3446 13.6434 17.161 14.9293C17.0866 15.6521 16.7634 16.3271 16.2462 16.84C15.7289 17.3528 15.0494 17.6719 14.3227 17.7433C13.0281 17.9278 11.8279 18.523 10.9003 19.4404C9.97266 20.3578 9.36718 21.5486 9.17378 22.8358C9.11699 23.3489 8.9399 23.8417 8.65677 24.2743C7.57422 23.6346 6.60466 22.8223 5.78686 21.8698ZM14.5127 25.9228C13.442 25.9239 12.3765 25.7755 11.3473 25.4818C11.6994 24.8287 11.9282 24.1169 12.0226 23.3818C12.0965 22.6605 12.4182 21.9867 12.9333 21.4741C13.4485 20.9615 14.1255 20.6413 14.8503 20.5678C16.143 20.3839 17.3412 19.7884 18.2656 18.8705C19.1899 17.9525 19.7907 16.7614 19.9781 15.4753C20.0521 14.754 20.3738 14.0802 20.8889 13.5676C21.404 13.055 22.0811 12.7348 22.8058 12.6613C23.7787 12.5353 24.7059 12.1749 25.5069 11.6113C25.9517 13.2891 26.0044 15.046 25.661 16.7472C25.3175 18.4484 24.587 20.0487 23.5256 21.4254C22.4641 22.802 21.0999 23.9184 19.5376 24.6889C17.9752 25.4594 16.2563 25.8635 14.5127 25.8703V25.9228Z" fill="#374151"/>
</g>
</svg>
